{
  "title": "Home Alone 2 - Lost in New York (1992) DVD Rip",
  "uid": 6334451,
  "size": 838953006,
  "categoryP": "video",
  "categoryS": "movies",
  "magnet": "?xt=urn:btih:63b35db9837dfa70ee6f6a35224fd712e59f453c&amp;dn=Home+Alone+2+-+Lost+in+New+York+%281992%29+DVD+Rip&amp;tr=udp%3A%2F%2Ftracker.openbittorrent.com%3A80&amp;tr=udp%3A%2F%2Fopen.demonii.com%3A1337&amp;tr=udp%3A%2F%2Ftracker.coppersurfer.tk%3A6969&amp;tr=udp%3A%2F%2Fexodus.desync.com%3A6969",
  "seeders": 46,
  "leechers": 0,
  "uploader": "RetroidPrime91",
  "files": 2,
  "time": 1303412319,
  "description": "One year after Kevin was left home alone and had to defeat a pair of bumbling burglars, he accidentally finds himself in New York City, and the same criminals are not far behind.\n\n\nFormat                           : AVI\nFormat/Info                      : Audio Video Interleave\nFile size                        : 800 MiB\nDuration                         : 2h 0mn\nOverall bit rate                 : 932 Kbps\nWriting application              : VirtualDubMod 1.5.4.1 (build 2178/release)\nWriting library                  : VirtualDubMod build 2178/release\n\nVideo\nID                               : 0\nFormat                           : MPEG-4 Visual\nFormat profile                   : Advanced Simple@L5\nFormat settings, BVOP            : Yes\nFormat settings, QPel            : No\nFormat settings, GMC             : No warppoints\nFormat settings, Matrix          : Custom\nCodec ID                         : XVID\nCodec ID/Hint                    : XviD\nDuration                         : 2h 0mn\nBit rate                         : 797 Kbps\nWidth                            : 544 pixels\nHeight                           : 304 pixels\nDisplay aspect ratio             : 16:9\nFrame rate                       : 23.976 fps\nColor space                      : YUV\nChroma subsampling               : 4:2:0\nBit depth                        : 8 bits\nScan type                        : Progressive\nCompression mode                 : Lossy\nBits/(Pixel*Frame)               : 0.201\nStream size                      : 684 MiB (86%)\nWriting library                  : XviD 1.2.1 (UTC 2008-12-04)\n\nAudio\nID                               : 1\nFormat                           : MPEG Audio\nFormat version                   : Version 1\nFormat profile                   : Layer 3\nCodec ID                         : 55\nCodec ID/Hint                    : MP3\nDuration                         : 2h 0mn\nBit rate mode                    : Constant\nBit rate                         : 128 Kbps\nChannel(s)                       : 2 channels\nSampling rate                    : 48.0 KHz\nCompression mode                 : Lossy\nStream size                      : 110 MiB (14%)\nAlignment                        : Split accross interleaves\nInterleave, duration             : 83 ms (2.00 video frames)\nInterleave, preload duration     : 500 ms\nWriting library                  : LAME3.88 (alpha)\n\n\nPlease seed &amp; thank you for downloading",
  "parsed": {
    "xt": "urn:btih:63b35db9837dfa70ee6f6a35224fd712e59f453c",
    "dn": "Home Alone 2 - Lost in New York (1992) DVD Rip",
    "tr": [
      "udp://exodus.desync.com:6969",
      "udp://open.demonii.com:1337",
      "udp://tracker.coppersurfer.tk:6969",
      "udp://tracker.openbittorrent.com:80"
    ],
    "infoHash": "63b35db9837dfa70ee6f6a35224fd712e59f453c",
    "infoHashBuffer": {
      "type": "Buffer",
      "data": [
        99,
        179,
        93,
        185,
        131,
        125,
        250,
        112,
        238,
        111,
        106,
        53,
        34,
        79,
        215,
        18,
        229,
        159,
        69,
        60
      ]
    },
    "name": "Home Alone 2 - Lost in New York (1992) DVD Rip",
    "announce": [
      "udp://exodus.desync.com:6969",
      "udp://open.demonii.com:1337",
      "udp://tracker.coppersurfer.tk:6969",
      "udp://tracker.openbittorrent.com:80"
    ],
    "urlList": []
  },
  "previous": 23,
  "peers": 154,
  "last_updated": "2016-12-27T02:10:14.846Z"
}